<svg viewBox="0 0 124 15" fill="none" xmlns="http://www.w3.org/2000/svg">
<path d="M13.7737 0.317307H27.2246V3.13442H17.486V4.91242C17.486 5.34175 17.8337 5.68942 18.263 5.68942H26.8505V8.26386H18.263C17.8337 8.26386 17.486 8.61153 17.486 9.04086V10.8383H27.2246V13.6554H13.7737V0.316528V0.317307Z" fill="currentColor"/>
<path d="M34.2471 6.42443L28.0544 0.317322H33.0727L37.3823 4.81288L41.6726 0.317322H46.6721L40.4794 6.42443C40.1714 6.72854 40.1707 7.22632 40.4794 7.53043L46.6729 13.6554H41.6733L37.3831 9.15988L33.0734 13.6554H28.0552L34.2487 7.53043C34.5567 7.22555 34.5559 6.72854 34.2487 6.42443H34.2471Z" fill="currentColor"/>
<path d="M47.5299 0.317322H58.1637C61.7827 0.317322 63.5358 1.69788 63.5358 4.30965C63.5358 6.13821 62.5472 7.3321 60.7374 7.85399C62.4166 7.94732 63.4985 8.91721 63.4985 10.5218V13.6562H59.7861V11.1191C59.7861 10.2231 59.0597 9.49588 58.1629 9.49588H51.2422V13.6562H47.5299V0.317322ZM57.3058 6.51076C58.7797 6.51076 59.6749 6.13821 59.6749 4.88832C59.6749 3.63843 58.7789 3.30243 57.3058 3.30243H51.243V5.73376C51.243 6.1631 51.5907 6.51076 52.02 6.51076H57.3058Z" fill="currentColor"/>
<path d="M64.4467 6.99611C64.4467 2.74245 68.0291 0 73.6065 0C79.184 0 82.7851 2.74245 82.7851 6.99611C82.7851 11.2498 79.2027 14.0288 73.6065 14.0288C68.0104 14.0288 64.4467 11.2677 64.4467 6.99611ZM73.6065 10.8951C76.8903 10.8951 78.9234 9.30922 78.9234 6.99611C78.9234 4.683 76.8903 3.11578 73.6065 3.11578C70.3228 3.11578 68.3083 4.66433 68.3083 6.99611C68.3083 9.32789 70.3601 10.8951 73.6065 10.8951Z" fill="currentColor"/>
<path d="M83.7029 7.01393C83.7029 2.76027 87.2853 0.0178223 92.8628 0.0178223C98.4402 0.0178223 102.041 2.76027 102.041 7.01393C102.041 11.2676 98.4589 14.0466 92.8628 14.0466C87.2667 14.0466 83.7029 11.2855 83.7029 7.01393ZM92.8628 10.9122C96.1465 10.9122 98.1797 9.32627 98.1797 7.01316C98.1797 4.70004 96.1465 3.13282 92.8628 3.13282C89.579 3.13282 87.5645 4.68138 87.5645 7.01316C87.5645 9.34493 89.6163 10.9122 92.8628 10.9122Z" fill="currentColor"/>
<path d="M102.916 0.335205H108.662L113.4 9.53243L118.138 0.335205H123.865V13.6741H120.153V5.99743C120.153 5.45298 119.421 5.27721 119.173 5.76176L115.134 13.6741H111.683L107.606 5.71665C107.358 5.23209 106.627 5.40865 106.627 5.95309V13.6741H102.915V0.335205H102.916Z" fill="currentColor"/>
<path d="M13.0029 10.5218V13.657H3.70689V11.5679C3.70689 11.2933 3.598 11.0297 3.40356 10.8352L3.39422 10.8259C3.19978 10.6314 2.93611 10.5225 2.66156 10.5225H0V0.317322H3.71233V9.47643C3.71233 9.75099 3.82122 10.0147 4.01567 10.2091L4.025 10.2184C4.21944 10.4129 4.48311 10.5218 4.75767 10.5218H13.0021H13.0029Z" fill="currentColor"/>
</svg>
